<svg width="30" height="30" viewBox="0 0 30 30" fill="none" xmlns="http://www.w3.org/2000/svg">
<path d="M25.8398 24.375C25.8398 25.1836 25.1836 25.8398 24.375 25.8398C23.5664 25.8398 22.9102 25.1836 22.9102 24.375C22.9102 23.5664 23.5664 22.9102 24.375 22.9102C25.1836 22.9102 25.8398 23.5664 25.8398 24.375Z" fill="#F2F2F2"/>
<path d="M8.96484 24.375C8.96484 25.1836 8.30859 25.8398 7.5 25.8398C6.69141 25.8398 6.03516 25.1836 6.03516 24.375C6.03516 23.5664 6.69141 22.9102 7.5 22.9102C8.30859 22.9102 8.96484 23.5664 8.96484 24.375Z" fill="#F2F2F2"/>
<path d="M7.49414 5.625L6.84375 3.75H3.75V4.74609H6.19336L9.5625 17.2441C7.66406 17.9062 6.05273 19.4648 5.73633 21.5273C5.625 22.2129 5.625 22.5 5.625 22.5H26.25V21.5215H6.75586C7.03125 19.6699 9.0293 18.1172 11.0977 17.8594C13.166 17.6016 25.3535 15.8555 25.3535 15.8555L26.25 5.625H7.49414ZM24.375 15L10.6055 16.9512C10.5527 16.9629 10.5 16.9746 10.4473 16.9863L7.82813 6.59766H25.2715L24.375 15Z" fill="#F2F2F2"/>
</svg>
